<mxfile host="app.diagrams.net" agent="Mozilla/5.0 (Windows NT 10.0; Win64; x64) AppleWebKit/537.36 (KHTML, like Gecko) Chrome/134.0.0.0 Safari/537.36" version="26.1.3">
  <diagram name="Страница — 1" id="5V1XREvpp2LJKb0Vdx_c">
    <mxGraphModel dx="1430" dy="763" grid="1" gridSize="10" guides="1" tooltips="1" connect="1" arrows="1" fold="1" page="1" pageScale="1" pageWidth="827" pageHeight="1169" math="0" shadow="0">
      <root>
        <mxCell id="0" />
        <mxCell id="1" parent="0" />
        <mxCell id="dryHPmMkhF2rrRR8MtI4-1" value="Шлюз push-уведомлений" style="shape=umlLifeline;perimeter=lifelinePerimeter;whiteSpace=wrap;html=1;container=1;dropTarget=0;collapsible=0;recursiveResize=0;outlineConnect=0;portConstraint=eastwest;newEdgeStyle={&quot;curved&quot;:0,&quot;rounded&quot;:0};" parent="1" vertex="1">
          <mxGeometry x="370" y="400" width="100" height="560" as="geometry" />
        </mxCell>
        <mxCell id="dryHPmMkhF2rrRR8MtI4-11" value="" style="html=1;points=[[0,0,0,0,5],[0,1,0,0,-5],[1,0,0,0,5],[1,1,0,0,-5]];perimeter=orthogonalPerimeter;outlineConnect=0;targetShapes=umlLifeline;portConstraint=eastwest;newEdgeStyle={&quot;curved&quot;:0,&quot;rounded&quot;:0};" parent="dryHPmMkhF2rrRR8MtI4-1" vertex="1">
          <mxGeometry x="45" y="185" width="10" height="355" as="geometry" />
        </mxCell>
        <mxCell id="dryHPmMkhF2rrRR8MtI4-2" value="Клиент" style="shape=umlLifeline;perimeter=lifelinePerimeter;whiteSpace=wrap;html=1;container=1;dropTarget=0;collapsible=0;recursiveResize=0;outlineConnect=0;portConstraint=eastwest;newEdgeStyle={&quot;curved&quot;:0,&quot;rounded&quot;:0};" parent="1" vertex="1">
          <mxGeometry x="10" y="400" width="100" height="560" as="geometry" />
        </mxCell>
        <mxCell id="dryHPmMkhF2rrRR8MtI4-3" value="Система аутентификации организации" style="shape=umlLifeline;perimeter=lifelinePerimeter;whiteSpace=wrap;html=1;container=1;dropTarget=0;collapsible=0;recursiveResize=0;outlineConnect=0;portConstraint=eastwest;newEdgeStyle={&quot;curved&quot;:0,&quot;rounded&quot;:0};" parent="1" vertex="1">
          <mxGeometry x="180" y="400" width="100" height="300" as="geometry" />
        </mxCell>
        <mxCell id="dryHPmMkhF2rrRR8MtI4-8" value="" style="html=1;points=[[0,0,0,0,5],[0,1,0,0,-5],[1,0,0,0,5],[1,1,0,0,-5]];perimeter=orthogonalPerimeter;outlineConnect=0;targetShapes=umlLifeline;portConstraint=eastwest;newEdgeStyle={&quot;curved&quot;:0,&quot;rounded&quot;:0};" parent="dryHPmMkhF2rrRR8MtI4-3" vertex="1">
          <mxGeometry x="45" y="60" width="10" height="80" as="geometry" />
        </mxCell>
        <mxCell id="dryHPmMkhF2rrRR8MtI4-14" value="" style="html=1;points=[[0,0,0,0,5],[0,1,0,0,-5],[1,0,0,0,5],[1,1,0,0,-5]];perimeter=orthogonalPerimeter;outlineConnect=0;targetShapes=umlLifeline;portConstraint=eastwest;newEdgeStyle={&quot;curved&quot;:0,&quot;rounded&quot;:0};" parent="dryHPmMkhF2rrRR8MtI4-3" vertex="1">
          <mxGeometry x="45" y="220" width="10" height="80" as="geometry" />
        </mxCell>
        <mxCell id="dryHPmMkhF2rrRR8MtI4-4" value="NATS" style="shape=umlLifeline;perimeter=lifelinePerimeter;whiteSpace=wrap;html=1;container=1;dropTarget=0;collapsible=0;recursiveResize=0;outlineConnect=0;portConstraint=eastwest;newEdgeStyle={&quot;curved&quot;:0,&quot;rounded&quot;:0};" parent="1" vertex="1">
          <mxGeometry x="570" y="400" width="100" height="560" as="geometry" />
        </mxCell>
        <mxCell id="dryHPmMkhF2rrRR8MtI4-21" value="" style="html=1;points=[[0,0,0,0,5],[0,1,0,0,-5],[1,0,0,0,5],[1,1,0,0,-5]];perimeter=orthogonalPerimeter;outlineConnect=0;targetShapes=umlLifeline;portConstraint=eastwest;newEdgeStyle={&quot;curved&quot;:0,&quot;rounded&quot;:0};" parent="dryHPmMkhF2rrRR8MtI4-4" vertex="1">
          <mxGeometry x="40" y="420" width="10" height="30" as="geometry" />
        </mxCell>
        <mxCell id="dryHPmMkhF2rrRR8MtI4-9" value="Запрос токена" style="html=1;verticalAlign=bottom;endArrow=block;curved=0;rounded=0;entryX=0;entryY=0;entryDx=0;entryDy=5;" parent="1" source="dryHPmMkhF2rrRR8MtI4-2" target="dryHPmMkhF2rrRR8MtI4-8" edge="1">
          <mxGeometry relative="1" as="geometry">
            <mxPoint x="150" y="465" as="sourcePoint" />
          </mxGeometry>
        </mxCell>
        <mxCell id="dryHPmMkhF2rrRR8MtI4-10" value="Выдача токена" style="html=1;verticalAlign=bottom;endArrow=open;dashed=1;endSize=8;curved=0;rounded=0;exitX=0;exitY=1;exitDx=0;exitDy=-5;" parent="1" source="dryHPmMkhF2rrRR8MtI4-8" target="dryHPmMkhF2rrRR8MtI4-2" edge="1">
          <mxGeometry relative="1" as="geometry">
            <mxPoint x="150" y="535" as="targetPoint" />
          </mxGeometry>
        </mxCell>
        <mxCell id="dryHPmMkhF2rrRR8MtI4-12" value="Инициация подключения с использованием токена" style="html=1;verticalAlign=bottom;endArrow=block;curved=0;rounded=0;entryX=0;entryY=0;entryDx=0;entryDy=5;" parent="1" source="dryHPmMkhF2rrRR8MtI4-2" target="dryHPmMkhF2rrRR8MtI4-11" edge="1">
          <mxGeometry relative="1" as="geometry">
            <mxPoint x="360" y="590" as="sourcePoint" />
          </mxGeometry>
        </mxCell>
        <mxCell id="dryHPmMkhF2rrRR8MtI4-15" value="Верификация токена" style="html=1;verticalAlign=bottom;endArrow=block;curved=0;rounded=0;entryX=1;entryY=0;entryDx=0;entryDy=5;entryPerimeter=0;" parent="1" edge="1">
          <mxGeometry relative="1" as="geometry">
            <mxPoint x="414" y="630" as="sourcePoint" />
            <mxPoint x="234" y="630" as="targetPoint" />
          </mxGeometry>
        </mxCell>
        <mxCell id="dryHPmMkhF2rrRR8MtI4-16" value="Возврат результата верификации" style="html=1;verticalAlign=bottom;endArrow=open;dashed=1;endSize=8;curved=0;rounded=0;exitX=1;exitY=1;exitDx=0;exitDy=-5;exitPerimeter=0;" parent="1" source="dryHPmMkhF2rrRR8MtI4-14" target="dryHPmMkhF2rrRR8MtI4-11" edge="1">
          <mxGeometry relative="1" as="geometry">
            <mxPoint x="410" y="695" as="targetPoint" />
          </mxGeometry>
        </mxCell>
        <mxCell id="dryHPmMkhF2rrRR8MtI4-17" value="ошибка" style="shape=umlFrame;whiteSpace=wrap;html=1;pointerEvents=0;" parent="1" vertex="1">
          <mxGeometry x="10" y="710" width="440" height="70" as="geometry" />
        </mxCell>
        <mxCell id="dryHPmMkhF2rrRR8MtI4-13" value="Прекращение соединения" style="html=1;verticalAlign=bottom;endArrow=open;dashed=1;endSize=8;curved=0;rounded=0;" parent="1" source="dryHPmMkhF2rrRR8MtI4-11" target="dryHPmMkhF2rrRR8MtI4-2" edge="1">
          <mxGeometry relative="1" as="geometry">
            <mxPoint x="280" y="885" as="targetPoint" />
            <Array as="points">
              <mxPoint x="240" y="750" />
            </Array>
          </mxGeometry>
        </mxCell>
        <mxCell id="dryHPmMkhF2rrRR8MtI4-22" value="Подключение к очереди сообщений" style="html=1;verticalAlign=bottom;endArrow=block;curved=0;rounded=0;entryX=0;entryY=0;entryDx=0;entryDy=5;" parent="1" source="dryHPmMkhF2rrRR8MtI4-11" target="dryHPmMkhF2rrRR8MtI4-21" edge="1">
          <mxGeometry relative="1" as="geometry">
            <mxPoint x="510" y="825" as="sourcePoint" />
          </mxGeometry>
        </mxCell>
        <mxCell id="dryHPmMkhF2rrRR8MtI4-23" value="Возврат результата операции" style="html=1;verticalAlign=bottom;endArrow=open;dashed=1;endSize=8;curved=0;rounded=0;exitX=0;exitY=1;exitDx=0;exitDy=-5;" parent="1" target="dryHPmMkhF2rrRR8MtI4-11" edge="1">
          <mxGeometry relative="1" as="geometry">
            <mxPoint x="430" y="850" as="targetPoint" />
            <mxPoint x="615" y="850" as="sourcePoint" />
          </mxGeometry>
        </mxCell>
        <mxCell id="dryHPmMkhF2rrRR8MtI4-25" value="ошибка" style="shape=umlFrame;whiteSpace=wrap;html=1;pointerEvents=0;" parent="1" vertex="1">
          <mxGeometry x="10" y="860" width="440" height="70" as="geometry" />
        </mxCell>
        <mxCell id="dryHPmMkhF2rrRR8MtI4-26" value="Прекращение соединения" style="html=1;verticalAlign=bottom;endArrow=open;dashed=1;endSize=8;curved=0;rounded=0;" parent="1" edge="1">
          <mxGeometry relative="1" as="geometry">
            <mxPoint x="413.07" y="900" as="sourcePoint" />
            <mxPoint x="57.99857142857133" y="900" as="targetPoint" />
          </mxGeometry>
        </mxCell>
      </root>
    </mxGraphModel>
  </diagram>
</mxfile>
